<svg xmlns="http://www.w3.org/2000/svg" width="53.866" height="53.866" viewBox="0 0 53.866 53.866">
  <path id="Icon-coins" d="M0,42.641v4.492c0,3.714,9.048,6.733,20.2,6.733s20.2-3.019,20.2-6.733V42.641c-4.345,3.062-12.288,4.492-20.2,4.492S4.345,45.7,0,42.641ZM33.666,13.467c11.152,0,20.2-3.019,20.2-6.733S44.818,0,33.666,0s-20.2,3.019-20.2,6.733S22.514,13.467,33.666,13.467ZM0,31.6v5.429c0,3.714,9.048,6.733,20.2,6.733s20.2-3.019,20.2-6.733V31.6c-4.345,3.577-12.3,5.429-20.2,5.429S4.345,35.181,0,31.6Zm43.766,1.157c6.028-1.168,10.1-3.335,10.1-5.828V22.441c-2.441,1.725-6.028,2.9-10.1,3.63ZM20.2,16.833C9.048,16.833,0,20.6,0,25.25s9.048,8.417,20.2,8.417S40.4,29.9,40.4,25.25,31.352,16.833,20.2,16.833Zm23.072,5.923c6.312-1.136,10.594-3.367,10.594-5.923V12.341c-3.735,2.641-10.153,4.061-16.907,4.4C40.063,18.243,42.346,20.263,43.272,22.756Z" fill="#4181ff"/>
</svg>
