<svg xmlns="http://www.w3.org/2000/svg" width="58.037" height="34.835" viewBox="0 0 58.037 34.835">
  <path id="Icon-handshake" d="M39.42,4.5H31.63a2.9,2.9,0,0,0-1.959.762l-8.914,8.161c-.009.009-.018.027-.027.036a3.607,3.607,0,0,0-.19,5.078,3.782,3.782,0,0,0,5.087.245c.009-.009.027-.009.036-.018l7.246-6.638a1.451,1.451,0,0,1,1.959,2.14L32.5,16.434,45.7,27.153a6.534,6.534,0,0,1,.716.7V10.3L41.469,5.352A2.881,2.881,0,0,0,39.42,4.5Zm9.912,5.822v20.3a2.9,2.9,0,0,0,2.9,2.9h5.8V10.322Zm4.353,20.3a1.451,1.451,0,1,1,1.451-1.451A1.455,1.455,0,0,1,53.684,30.626ZM0,33.519H5.8a2.9,2.9,0,0,0,2.9-2.9V10.322H0Zm4.353-5.795A1.451,1.451,0,1,1,2.9,29.175,1.455,1.455,0,0,1,4.353,27.724Zm39.529,1.687L30.343,18.42l-2.72,2.494A6.527,6.527,0,0,1,18.8,11.292L26.216,4.5h-7.6a2.9,2.9,0,0,0-2.049.852L11.607,10.3v20.3h1.659l8.207,7.427a5.8,5.8,0,0,0,8.161-.843l.018-.018,1.623,1.406a3.37,3.37,0,0,0,4.743-.49l2.847-3.5.49.4a2.9,2.9,0,0,0,4.081-.426L44.3,33.5a2.907,2.907,0,0,0-.417-4.09Z" transform="translate(0 -4.5)" fill="#4181ff"/>
</svg>
