<svg xmlns="http://www.w3.org/2000/svg" width="57.2" height="57.2" viewBox="0 0 57.2 57.2">
  <path id="Icon-football-ball" d="M55.528,6.594a6.089,6.089,0,0,0-4.3-4.313A51.673,51.673,0,0,0,39.14.563L57.2,18.645A51.811,51.811,0,0,0,55.528,6.594ZM1.672,51.731a6.089,6.089,0,0,0,4.3,4.313,51.673,51.673,0,0,0,12.086,1.718L0,39.68A51.81,51.81,0,0,0,1.672,51.731ZM.484,32.322,25.417,57.3A36.645,36.645,0,0,0,56.727,26L31.783,1.024A36.621,36.621,0,0,0,.484,32.322ZM37.076,18.068a.926.926,0,0,1,1.3,0l1.3,1.3a.926.926,0,0,1,0,1.3l-3.264,3.264L39.682,27.2a.926.926,0,0,1,0,1.3l-1.3,1.3a.926.926,0,0,1-1.3,0l-3.264-3.264-2.606,2.618,3.264,3.264a.926.926,0,0,1,0,1.3l-1.3,1.3a.926.926,0,0,1-1.3,0L28.6,31.769l-2.606,2.606,3.264,3.264a.926.926,0,0,1,0,1.3l-1.3,1.3a.926.926,0,0,1-1.3,0l-3.264-3.264-3.264,3.264a.926.926,0,0,1-1.3,0l-1.3-1.3a.926.926,0,0,1,0-1.3l3.264-3.264-3.264-3.252a.926.926,0,0,1,0-1.3l1.3-1.3a.926.926,0,0,1,1.3,0l3.264,3.264,2.606-2.606L22.73,25.91a.926.926,0,0,1,0-1.3l1.3-1.3a.926.926,0,0,1,1.3,0L28.6,26.568l2.606-2.606L27.943,20.7a.926.926,0,0,1,0-1.3l1.3-1.3a.926.926,0,0,1,1.3,0l3.264,3.264Z" transform="translate(0 -0.563)" fill="#4181ff"/>
</svg>
