<svg xmlns="http://www.w3.org/2000/svg" width="49.226" height="54.343" viewBox="0 0 49.226 54.343">
  <path id="Icon-hackhands" d="M11.137,39.919H25.515a2.027,2.027,0,0,0-.023-4.053H11.137a2.005,2.005,0,0,0-2.015,2.015,2.029,2.029,0,0,0,2.038,2.038Zm25.541-8.74a2.029,2.029,0,0,0-2.038-2.038h-20.7a2.038,2.038,0,0,0,.023,4.076H34.686a2.029,2.029,0,0,0,2.038-2.038Zm4.212-6.725a2.06,2.06,0,0,0-2.015-1.993H13.922a2.015,2.015,0,1,0,.023,4.03h24.93a2.01,2.01,0,0,0,2.015-2.038ZM11.907,17.707a2.01,2.01,0,0,0,2.038,2.015H35.455a2.015,2.015,0,0,0-.023-4.03H13.922a1.991,1.991,0,0,0-2.015,2.015Zm5.163-8.74H11.137a2.027,2.027,0,0,0,.023,4.053h5.978a2.029,2.029,0,0,0,2.038-2.038,2.106,2.106,0,0,0-2.106-2.015ZM50.92,47.1a2.106,2.106,0,0,0-2.128-2.128H9.778a3.967,3.967,0,0,1-3.917-3.94V8.083A3.933,3.933,0,0,1,9.778,4.166H42.724a3.923,3.923,0,0,1,3.94,3.917V34.8a2.072,2.072,0,1,0,4.144,0V8.083A8.088,8.088,0,0,0,42.724,0H9.778A8.083,8.083,0,0,0,1.7,8.083V41.029a8.088,8.088,0,0,0,8.083,8.083H45.328l5.593,5.23Z" transform="translate(-1.695)" fill="#4181ff"/>
</svg>
