<svg xmlns="http://www.w3.org/2000/svg" width="52.333" height="52.333" viewBox="0 0 52.333 52.333">
  <path id="Icon-headset" d="M19.625,21.26a3.271,3.271,0,0,0-3.271-3.271H14.719a6.541,6.541,0,0,0-6.542,6.542v4.906a6.541,6.541,0,0,0,6.542,6.542h1.635a3.271,3.271,0,0,0,3.271-3.271ZM37.614,35.979a6.541,6.541,0,0,0,6.542-6.542V24.531a6.541,6.541,0,0,0-6.542-6.542H35.979a3.271,3.271,0,0,0-3.271,3.271V32.708a3.271,3.271,0,0,0,3.271,3.271ZM26.167,0C11.568,0,.468,12.146,0,26.167V27.8a1.635,1.635,0,0,0,1.635,1.635H3.271A1.635,1.635,0,0,0,4.906,27.8V26.167a21.26,21.26,0,0,1,42.521,0h-.012c.008.248.012,16.939.012,16.939a4.322,4.322,0,0,1-4.322,4.322h-10.4A4.906,4.906,0,0,0,27.8,42.521H24.531a4.906,4.906,0,0,0,0,9.812H43.105a9.228,9.228,0,0,0,9.228-9.228V26.167C51.865,12.146,40.765,0,26.167,0Z" fill="#4181ff"/>
</svg>
