<svg xmlns="http://www.w3.org/2000/svg" width="54.873" height="57.32" viewBox="0 0 54.873 57.32">
  <path id="Icon-cog" d="M55.483,36.117,50.56,33.275a22.26,22.26,0,0,0,0-8.113l4.923-2.843a1.4,1.4,0,0,0,.636-1.618A28.782,28.782,0,0,0,49.8,9.769a1.391,1.391,0,0,0-1.71-.266l-4.923,2.843a21.81,21.81,0,0,0-7.026-4.056V2.615a1.385,1.385,0,0,0-1.086-1.352,29.052,29.052,0,0,0-12.62,0,1.385,1.385,0,0,0-1.086,1.352V8.3a22.5,22.5,0,0,0-7.026,4.056L9.407,9.514A1.373,1.373,0,0,0,7.7,9.78,28.609,28.609,0,0,0,1.375,20.713a1.382,1.382,0,0,0,.636,1.618l4.923,2.843a22.26,22.26,0,0,0,0,8.113L2.011,36.129a1.4,1.4,0,0,0-.636,1.618A28.782,28.782,0,0,0,7.7,48.679a1.391,1.391,0,0,0,1.71.266L14.33,46.1a21.81,21.81,0,0,0,7.026,4.056v5.686A1.385,1.385,0,0,0,22.443,57.2a29.052,29.052,0,0,0,12.62,0,1.385,1.385,0,0,0,1.086-1.352V50.159A22.5,22.5,0,0,0,43.175,46.1L48.1,48.945a1.373,1.373,0,0,0,1.71-.266A28.609,28.609,0,0,0,56.13,37.747a1.427,1.427,0,0,0-.647-1.629ZM28.741,38.463a9.245,9.245,0,1,1,9.245-9.245A9.257,9.257,0,0,1,28.741,38.463Z" transform="translate(-1.311 -0.57)" fill="#4181ff"/>
</svg>
