<svg id="logo" xmlns="http://www.w3.org/2000/svg" xmlns:xlink="http://www.w3.org/1999/xlink" width="349.877" height="47.553" viewBox="0 0 349.877 47.553">
  <defs>
    <clipPath id="clip-path">
      <rect id="Rectangle_3255" data-name="Rectangle 3255" width="349.877" height="47.553" fill="none"/>
    </clipPath>
  </defs>
  <g id="Group_3858" data-name="Group 3858" transform="translate(0 0)" clip-path="url(#clip-path)">
    <path id="Path_1806" data-name="Path 1806" d="M11.871,7.363A5.325,5.325,0,0,1,15.513,8.5a4.043,4.043,0,0,1,1.3,3.2h6.173a8.614,8.614,0,0,0-1.387-4.814,9.1,9.1,0,0,0-3.9-3.279,13.435,13.435,0,0,0-5.72-1.162A14.788,14.788,0,0,0,6.225,3.514,8.932,8.932,0,0,0,2.293,6.488,7.243,7.243,0,0,0,.927,10.818q0,4.672,5.1,7.43a31.849,31.849,0,0,0,5.081,2.047,16.156,16.156,0,0,1,4.445,1.973,3.173,3.173,0,0,1,1.232,2.686,2.917,2.917,0,0,1-1.232,2.5,5.772,5.772,0,0,1-3.437.9q-5.925,0-5.923-4.961H0a8.892,8.892,0,0,0,1.492,5.105,9.946,9.946,0,0,0,4.329,3.466,15.311,15.311,0,0,0,6.3,1.264,12.87,12.87,0,0,0,7.921-2.212,7.205,7.205,0,0,0,2.942-6.1,7.823,7.823,0,0,0-2.405-5.843Q18.164,16.725,12.9,15.14a16.515,16.515,0,0,1-4.329-1.854A2.879,2.879,0,0,1,7.1,10.839,3.021,3.021,0,0,1,8.353,8.318a5.7,5.7,0,0,1,3.518-.955" transform="translate(0 6.145)" fill="#10121c"/>
    <path id="Path_1807" data-name="Path 1807" d="M21.136,23.3a5.125,5.125,0,0,1-1.05,3.455,3.532,3.532,0,0,1-2.82,1.215,3.712,3.712,0,0,1-2.921-1.05,4.832,4.832,0,0,1-.923-3.251H7.207a8.788,8.788,0,0,0,2.654,6.843q2.654,2.417,7.405,2.416a11.144,11.144,0,0,0,5.207-1.194,8.576,8.576,0,0,0,3.567-3.385A9.885,9.885,0,0,0,27.309,23.3V2.564H21.136Z" transform="translate(18.098 6.439)" fill="#10121c"/>
    <path id="Path_1808" data-name="Path 1808" d="M20.61,27.561V19.538H32.46V14.7H20.61V7.564H34.476v-5H14.437V32.519H34.518V27.561Z" transform="translate(36.255 6.44)" fill="#10121c"/>
    <path id="Path_1809" data-name="Path 1809" d="M35.126,7.636a7.85,7.85,0,0,1,6.492-3.044q7.342,0,8.29,7.633h2.553a10.851,10.851,0,0,0-3.241-7.18,10.718,10.718,0,0,0-7.6-2.6,10.976,10.976,0,0,0-6.039,1.678,10.808,10.808,0,0,0-4.024,4.765,16.985,16.985,0,0,0-1.4,7.075v3.887a16.861,16.861,0,0,0,1.419,6.987,10.869,10.869,0,0,0,3.961,4.719,10.557,10.557,0,0,0,5.9,1.668,11.192,11.192,0,0,0,7.644-2.511,10.735,10.735,0,0,0,3.385-7.24H49.909a9.132,9.132,0,0,1-2.489,5.709q-2.017,1.9-5.987,1.9A7.59,7.59,0,0,1,35.063,28a13.312,13.312,0,0,1-2.353-8.276V16.056q0-5.372,2.416-8.42" transform="translate(75.734 6.142)" fill="#fff"/>
    <path id="Path_1810" data-name="Path 1810" d="M55.683,4.111a11.936,11.936,0,0,0-12.212.032A11.08,11.08,0,0,0,39.366,9a17.224,17.224,0,0,0-1.45,7.251v3.086q0,6.378,3.23,10.133a10.642,10.642,0,0,0,8.476,3.754,11.19,11.19,0,0,0,6.131-1.685,10.886,10.886,0,0,0,4.084-4.814,17.283,17.283,0,0,0,1.433-7.265V15.881a17,17,0,0,0-1.5-7.058,10.952,10.952,0,0,0-4.084-4.712m3.055,15.267q0,5.493-2.409,8.567a8.032,8.032,0,0,1-6.706,3.076,8.1,8.1,0,0,1-6.706-3.114q-2.47-3.118-2.468-8.448V16.334q0-5.514,2.479-8.588A8.111,8.111,0,0,1,49.584,4.67,8.12,8.12,0,0,1,56.29,7.735q2.449,3.065,2.447,8.476Z" transform="translate(95.216 6.145)" fill="#fff"/>
    <path id="Path_1811" data-name="Path 1811" d="M66.175,28.22,48.935,2.564H46.383V32.522h2.553V6.886L66.154,32.522h2.532V2.564H66.175Z" transform="translate(116.477 6.438)" fill="#fff"/>
    <path id="Path_1812" data-name="Path 1812" d="M71.643,18.69a27.676,27.676,0,0,0-6.11-2.286,16.984,16.984,0,0,1-5.864-2.542,4.534,4.534,0,0,1-1.833-3.732,4.794,4.794,0,0,1,2.037-4.006,8.877,8.877,0,0,1,5.474-1.538,8.187,8.187,0,0,1,5.639,1.868,6.3,6.3,0,0,1,2.1,4.944h2.553a8.436,8.436,0,0,0-1.3-4.589A8.782,8.782,0,0,0,70.688,3.6a12,12,0,0,0-5.341-1.152A11.632,11.632,0,0,0,58.115,4.6a6.706,6.706,0,0,0-2.827,5.586,6.726,6.726,0,0,0,3.044,5.72,22.407,22.407,0,0,0,6.791,2.851q4.645,1.306,6.4,2.756a4.845,4.845,0,0,1,1.749,3.94,4.821,4.821,0,0,1-2.121,4.094,9.322,9.322,0,0,1-5.614,1.541,10.027,10.027,0,0,1-6.3-1.829,5.983,5.983,0,0,1-2.367-5H54.34a8.176,8.176,0,0,0,1.369,4.67,8.866,8.866,0,0,0,4.01,3.167,14.618,14.618,0,0,0,5.815,1.134,12.03,12.03,0,0,0,7.458-2.142,6.767,6.767,0,0,0,2.827-5.678,7.072,7.072,0,0,0-1.046-3.887,8.722,8.722,0,0,0-3.128-2.83" transform="translate(136.46 6.145)" fill="#fff"/>
    <path id="Path_1813" data-name="Path 1813" d="M80.417,22.848a7.788,7.788,0,0,1-2.149,5.843,8.018,8.018,0,0,1-5.853,2.1A8.088,8.088,0,0,1,66.551,28.7a7.788,7.788,0,0,1-2.159-5.874V2.564H61.881V23.2a9.458,9.458,0,0,0,2.953,7.149,10.857,10.857,0,0,0,7.581,2.581,12.073,12.073,0,0,0,5.5-1.2,8.749,8.749,0,0,0,3.715-3.445,10.364,10.364,0,0,0,1.338-5.267V2.564H80.417Z" transform="translate(155.398 6.439)" fill="#fff"/>
    <path id="Path_1814" data-name="Path 1814" d="M72.449,2.564H69.9V32.518H87.241V30.38H72.449Z" transform="translate(175.525 6.439)" fill="#fff"/>
    <path id="Path_1815" data-name="Path 1815" d="M73.834,4.7H84.08V32.519h2.532V4.7H96.875V2.564H73.834Z" transform="translate(185.414 6.44)" fill="#fff"/>
    <rect id="Rectangle_3253" data-name="Rectangle 3253" width="2.532" height="29.954" transform="translate(287.682 9.003)" fill="#fff"/>
    <path id="Path_1816" data-name="Path 1816" d="M104.759,28.22,87.519,2.564H84.967V32.522h2.553V6.886l17.219,25.636h2.532V2.564h-2.511Z" transform="translate(213.371 6.438)" fill="#fff"/>
    <path id="Path_1817" data-name="Path 1817" d="M105.108,18.6v2.138h8.044v7.739a6.079,6.079,0,0,1-2.265,1.584,13.929,13.929,0,0,1-5.614,1.029,8.8,8.8,0,0,1-4.989-1.443,9.2,9.2,0,0,1-3.332-4.066,14.772,14.772,0,0,1-1.162-6.043V15.992q0-5.43,2.447-8.42a8.141,8.141,0,0,1,6.647-2.985,8.635,8.635,0,0,1,5.565,1.7,7.768,7.768,0,0,1,2.683,5h2.532A9.741,9.741,0,0,0,112.31,4.8a11.235,11.235,0,0,0-7.447-2.356A10.655,10.655,0,0,0,96.4,6.059Q93.26,9.667,93.258,15.9V19.69a16.135,16.135,0,0,0,1.524,7.075A11.233,11.233,0,0,0,99.02,31.54a11.673,11.673,0,0,0,6.253,1.685,17.865,17.865,0,0,0,6.285-1.05,8.468,8.468,0,0,0,4.126-2.921V18.6Z" transform="translate(234.192 6.142)" fill="#fff"/>
    <rect id="Rectangle_3254" data-name="Rectangle 3254" width="2.633" height="47.553" transform="translate(88.444)" fill="#fff"/>
  </g>
</svg>
